<svg xmlns="http://www.w3.org/2000/svg" width="640" height="300" viewBox="0 0 640 300" role="img" aria-labelledby="title desc">
  <title id="title">Prepare Cloudflare access</title><desc id="desc">Prepare a Cloudflare account ID, API token and mail domain.</desc><defs><linearGradient id="bg" x1="0" y1="0" x2="1" y2="1"><stop stop-color="#fff8ef"/><stop offset="1" stop-color="#fff1d6"/></linearGradient></defs><rect width="640" height="300" rx="18" fill="url(#bg)"/>
  <path d="M211 113c9-44 75-52 101-18 35-25 91-4 91 39 27 2 43 20 43 42H182c0-32 9-52 29-63Z" fill="#f6821f"/><path d="M208 176h238" stroke="#c75000" stroke-width="7" stroke-linecap="round"/>
  <rect x="82" y="202" width="142" height="52" rx="12" fill="#fff" stroke="#f6821f" stroke-width="2"/><circle cx="111" cy="228" r="13" fill="#f6821f"/><path d="M105 228h12M111 222v12" stroke="#fff" stroke-width="2"/><text x="133" y="233" font-family="Arial,sans-serif" font-size="16" font-weight="700" fill="#3b2b20">Account ID</text>
  <rect x="249" y="202" width="142" height="52" rx="12" fill="#fff" stroke="#f6821f" stroke-width="2"/><path d="M276 219a10 10 0 1 0 0 18h6v-7h8v-6h-8a10 10 0 0 0-6-5Z" fill="#f6821f"/><text x="303" y="233" font-family="Arial,sans-serif" font-size="16" font-weight="700" fill="#3b2b20">API Token</text>
  <rect x="416" y="202" width="142" height="52" rx="12" fill="#fff" stroke="#f6821f" stroke-width="2"/><circle cx="446" cy="228" r="13" fill="none" stroke="#f6821f" stroke-width="3"/><path d="M433 228h26M446 215c5 7 5 19 0 26M446 215c-5 7-5 19 0 26" fill="none" stroke="#f6821f" stroke-width="2"/><text x="470" y="233" font-family="Arial,sans-serif" font-size="16" font-weight="700" fill="#3b2b20">Domain</text>
</svg>
