<svg xmlns="http://www.w3.org/2000/svg" width="640" height="300" viewBox="0 0 640 300" role="img" aria-labelledby="title desc">
  <title id="title">Configure domain and Email Routing</title><desc id="desc">Incoming mail is sent through Cloudflare Email Routing to the Worker.</desc><defs><marker id="arrow" markerWidth="10" markerHeight="10" refX="9" refY="3" orient="auto"><path d="M0 0L10 3 0 6Z" fill="#57606a"/></marker></defs><rect width="640" height="300" rx="18" fill="#f7fafc"/>
  <rect x="42" y="94" width="148" height="112" rx="16" fill="#fff" stroke="#54aeff" stroke-width="2"/><circle cx="116" cy="129" r="24" fill="#ddf4ff" stroke="#0969da" stroke-width="3"/><path d="M92 129h48M116 105c10 12 10 36 0 48M116 105c-10 12-10 36 0 48" fill="none" stroke="#0969da" stroke-width="2"/><text x="116" y="181" text-anchor="middle" font-family="Arial,sans-serif" font-size="16" font-weight="700" fill="#24292f">mail.example.com</text><path d="M202 150h60" stroke="#57606a" stroke-width="4" marker-end="url(#arrow)"/>
  <rect x="272" y="73" width="144" height="154" rx="16" fill="#fff8ef" stroke="#f6821f" stroke-width="2"/><path d="M307 112h74v48h-74Z" fill="#fff" stroke="#f6821f" stroke-width="3"/><path d="m309 115 35 26 35-26" fill="none" stroke="#f6821f" stroke-width="3"/><text x="344" y="190" text-anchor="middle" font-family="Arial,sans-serif" font-size="16" font-weight="700" fill="#7a3e00">Email Routing</text><text x="344" y="211" text-anchor="middle" font-family="Arial,sans-serif" font-size="13" fill="#7a3e00">Catch-all</text><path d="M428 150h60" stroke="#57606a" stroke-width="4" marker-end="url(#arrow)"/>
  <rect x="498" y="94" width="104" height="112" rx="16" fill="#fff3cd" stroke="#f6821f" stroke-width="2"/><path d="M529 121h42l-7 26 12 7-25 25 5-21-17-5Z" fill="#f6821f"/><text x="550" y="190" text-anchor="middle" font-family="Arial,sans-serif" font-size="16" font-weight="700" fill="#7a3e00">Worker</text>
</svg>
