<svg xmlns="http://www.w3.org/2000/svg" width="640" height="300" viewBox="0 0 640 300" role="img" aria-labelledby="title desc">
  <title id="title">Fork GitHub repository</title><desc id="desc">Copy the cloudmail-pro repository to your GitHub account.</desc>
  <defs><linearGradient id="bg" x1="0" y1="0" x2="1" y2="1"><stop stop-color="#f6f8fa"/><stop offset="1" stop-color="#e8f1ff"/></linearGradient><marker id="arrow" markerWidth="10" markerHeight="10" refX="9" refY="3" orient="auto"><path d="M0 0L10 3 0 6Z" fill="#57606a"/></marker></defs>
  <rect width="640" height="300" rx="18" fill="url(#bg)"/>
  <rect x="50" y="72" width="210" height="150" rx="16" fill="#fff" stroke="#d0d7de" stroke-width="2"/><circle cx="90" cy="112" r="18" fill="#24292f"/><path d="M82 112a8 8 0 1 0 16 0 8 8 0 0 0-16 0m4 0a4 4 0 1 1 8 0 4 4 0 0 1-8 0" fill="#fff"/><text x="118" y="108" font-family="Arial,sans-serif" font-size="17" font-weight="700" fill="#24292f">JasonPanJ</text><text x="118" y="132" font-family="Arial,sans-serif" font-size="16" fill="#57606a">cloudmail-pro</text><rect x="78" y="166" width="154" height="32" rx="8" fill="#f6f8fa" stroke="#d0d7de"/><text x="155" y="187" text-anchor="middle" font-family="Arial,sans-serif" font-size="14" fill="#24292f">main</text>
  <path d="M280 147H358" stroke="#57606a" stroke-width="4" marker-end="url(#arrow)"/><rect x="290" y="113" width="58" height="30" rx="15" fill="#1f883d"/><text x="319" y="133" text-anchor="middle" font-family="Arial,sans-serif" font-size="14" font-weight="700" fill="#fff">Fork</text>
  <rect x="380" y="72" width="210" height="150" rx="16" fill="#fff" stroke="#54aeff" stroke-width="2"/><circle cx="420" cy="112" r="18" fill="#0969da"/><path d="M411 116h18M415 109l5-5 5 5" fill="none" stroke="#fff" stroke-width="3" stroke-linecap="round" stroke-linejoin="round"/><text x="448" y="108" font-family="Arial,sans-serif" font-size="17" font-weight="700" fill="#24292f">Your GitHub</text><text x="448" y="132" font-family="Arial,sans-serif" font-size="16" fill="#57606a">cloudmail-pro</text><rect x="408" y="166" width="154" height="32" rx="8" fill="#ddf4ff" stroke="#54aeff"/><text x="485" y="187" text-anchor="middle" font-family="Arial,sans-serif" font-size="14" fill="#0969da">main</text>
</svg>
