<svg xmlns="http://www.w3.org/2000/svg" width="640" height="300" viewBox="0 0 640 300" role="img" aria-labelledby="title desc">
  <title id="title">Run GitHub Actions deployment</title><desc id="desc">GitHub Actions builds the app and deploys a Worker with D1 and KV.</desc><defs><marker id="arrow" markerWidth="10" markerHeight="10" refX="9" refY="3" orient="auto"><path d="M0 0L10 3 0 6Z" fill="#57606a"/></marker></defs><rect width="640" height="300" rx="18" fill="#f6f8fa"/>
  <rect x="42" y="104" width="136" height="92" rx="14" fill="#fff" stroke="#d0d7de" stroke-width="2"/><circle cx="82" cy="137" r="18" fill="#24292f"/><path d="M74 137a8 8 0 1 0 16 0 8 8 0 0 0-16 0" fill="none" stroke="#fff" stroke-width="3"/><text x="110" y="142" font-family="Arial,sans-serif" font-size="16" font-weight="700" fill="#24292f">GitHub</text><text x="110" y="166" font-family="Arial,sans-serif" font-size="14" fill="#57606a">Actions</text><path d="M190 150h70" stroke="#57606a" stroke-width="4" marker-end="url(#arrow)"/>
  <rect x="270" y="77" width="140" height="146" rx="16" fill="#ddf4ff" stroke="#54aeff" stroke-width="2"/><path d="M323 122l23 13-23 13Z" fill="#0969da"/><text x="340" y="180" text-anchor="middle" font-family="Arial,sans-serif" font-size="16" font-weight="700" fill="#0969da">Build + Deploy</text><circle cx="388" cy="98" r="12" fill="#1f883d"/><path d="m382 98 4 4 8-9" fill="none" stroke="#fff" stroke-width="3" stroke-linecap="round"/><path d="M420 150h52" stroke="#57606a" stroke-width="4" marker-end="url(#arrow)"/>
  <rect x="482" y="51" width="120" height="62" rx="12" fill="#fff3cd" stroke="#f6821f" stroke-width="2"/><text x="542" y="78" text-anchor="middle" font-family="Arial,sans-serif" font-size="16" font-weight="700" fill="#7a3e00">Worker</text><text x="542" y="98" text-anchor="middle" font-family="Arial,sans-serif" font-size="13" fill="#7a3e00">Cloudflare</text><rect x="482" y="124" width="120" height="52" rx="12" fill="#fff" stroke="#8250df" stroke-width="2"/><text x="542" y="157" text-anchor="middle" font-family="Arial,sans-serif" font-size="17" font-weight="700" fill="#6639ba">D1</text><rect x="482" y="187" width="120" height="52" rx="12" fill="#fff" stroke="#2da44e" stroke-width="2"/><text x="542" y="220" text-anchor="middle" font-family="Arial,sans-serif" font-size="17" font-weight="700" fill="#1a7f37">KV</text>
</svg>
